<svg xmlns="http://www.w3.org/2000/svg" width="16" height="16" viewBox="0 0 24 24">
  <path id="Vector" d="M 20.5 2 h -17 A 1.5 1.5 0 0 0 2 3.5 v 17 A 1.5 1.5 0 0 0 3.5 22 h 17 a 1.5 1.5 0 0 0 1.5 -1.5 v -17 A 1.5 1.5 0 0 0 20.5 2 Z M 8 19 H 5 v -9 h 3 Z M 6.5 8.25 A 1.75 1.75 0 1 1 8.3 6.5 a 1.78 1.78 0 0 1 -1.8 1.75 Z M 19 19 h -3 v -4.74 c 0 -1.42 -0.6 -1.93 -1.38 -1.93 A 1.74 1.74 0 0 0 13 14.19 a 0.66 0.66 0 0 0 0 0.14 V 19 h -3 v -9 h 2.9 v 1.3 a 3.11 3.11 0 0 1 2.7 -1.4 c 1.55 0 3.36 0.86 3.36 3.66 Z" fill="#93A3B8"/>
</svg>
